<svg class="svg-icon" style="width: 1em; height: 1em;vertical-align: middle;fill: currentColor;overflow: hidden;" viewBox="0 0 1024 1024" version="1.1" xmlns="http://www.w3.org/2000/svg"><path d="M781.824 541.184L603.136 362.496s-6.656-3.584-11.264 0c-24.064 24.576-43.52 44.032-59.392 57.856-15.872 13.824-37.888 22.528-56.32 24.576-18.432 1.536-43.52 5.12-69.632-22.528-2.048-2.048-3.072-5.12-3.072-8.192s1.024-5.632 3.072-7.68l120.32-119.808c-10.24-9.728-16.896-16.384-19.968-18.944-28.672-25.088-62.976-41.472-90.112-55.296l-5.12-2.56c-4.096-2.56-8.704-4.608-13.312-6.656l-4.608-2.048-0.512-0.512c-14.848-7.68-35.84-18.432-55.808-18.432-14.336 0-26.624 5.632-37.888 16.384L133.12 366.08c-30.72 30.72-29.184 56.32-27.648 71.168 0.512 2.56 0.512 4.608 0.512 5.632 1.024 12.288 12.8 28.16 32.256 51.2 3.584 4.096 7.68 8.704 10.752 12.8 11.264 13.824 19.456 27.648 27.648 40.96l3.584 6.144c13.824 22.528 29.696 48.64 61.952 80.384L450.56 843.776c14.336 14.336 33.28 24.064 52.736 26.624 2.56 0.512 6.144 0.512 9.216 0.512 15.872 0 30.208-5.632 39.936-15.872l4.608-4.608c18.432-18.432-7.168-45.568-7.168-45.568l-84.992-84.992c-2.048-2.048-3.584-5.12-3.584-8.192s1.024-6.144 3.584-8.192c2.048-2.048 5.12-3.584 8.192-3.584s6.144 1.024 8.192 3.584l84.992 84.992s30.72 27.136 54.784 11.776c5.12-4.608 10.24-9.216 15.872-14.336 19.456-22.016-3.584-50.176-3.584-50.176l-92.16-92.16c-2.048-2.048-3.584-5.12-3.584-8.192s1.024-6.144 3.584-8.192c2.048-2.048 5.12-3.584 8.192-3.584s6.144 1.024 8.192 3.584l97.28 96.768s23.552 25.088 45.568 13.824l6.144-5.12 18.432-16.384s1.024-1.536 2.048-2.56c18.432-24.576-3.072-51.2-3.072-51.2L622.592 561.152c-2.048-2.048-3.584-5.12-3.584-8.192s1.024-6.144 3.584-8.192c2.048-2.048 5.12-3.584 8.192-3.584s6.144 1.024 8.192 3.584l80.896 80.896s31.232 29.696 65.024 8.192c8.192-8.192 14.848-14.848 17.408-28.16 6.144-24.576-2.56-46.592-20.48-64.512z" fill="#2C2C2C" /><path d="M894.976 367.104l-192-192c-43.52-43.52-91.136-47.616-126.976-11.776l-74.24 74.24-131.584 131.584c-10.24 9.728-10.24 26.112-0.512 36.352 31.744 28.16 70.656 37.888 70.656 37.888-10.752-3.072-22.016-9.216-33.28-20.992-2.048-2.048-3.072-5.12-3.072-8.192s1.024-5.632 3.072-7.68l20.48-20.48 110.592-110.592 75.264-75.264c9.216-9.216 15.872-9.216 20.48-8.704 6.144 1.024 16.896 5.12 32.256 20.48l192 192c17.92 17.92 34.304 43.52 13.312 64.512L832 507.904a25.958 25.958 0 0 0 0 36.864c5.12 5.12 11.776 7.68 18.432 7.68s13.312-2.56 18.432-7.68l39.424-39.424c38.4-38.4 33.28-91.648-13.312-138.24z" fill="#2C2C2C" /></svg>